<?xml version="1.0" encoding="UTF-8"?>
<!-- Generator: Adobe Illustrator 25.2.3, SVG Export Plug-In . SVG Version: 6.00 Build 0)  -->
<svg xmlns="http://www.w3.org/2000/svg" xmlns:xlink="http://www.w3.org/1999/xlink" version="1.1" id="Capa_1" x="0px" y="0px" viewBox="0 0 512 512" style="enable-background:new 0 0 512 512;" xml:space="preserve" width="512" height="512">
<g>
	<path style="opacity:0.2;fill-rule:evenodd;clip-rule:evenodd;fill:#7678C7;" d="M347.667,375.991   c33.958-0.253,66.4-0.617,97.518,1.415c13.617,0.888,27.085,2.479,39.603,4.523c5.348,0.873,11.259,1.84,16.887,3.485   c4.569,1.335,10.257,3.602,10.324,6.088c0.108,3.829-6.761,6.339-13.139,8.18c-15.194,4.392-35.898,7.146-54.84,8.851   c-28.098,2.527-57.952,2.965-88.808,3.448c4.224,0.804,8.733,1.476,12.445,2.775c3.245,1.134,6.69,2.969,5.817,5.534   c-1.207,3.559-10.979,6.501-18.843,8.27c-48.239,10.85-126.057,10.335-169.898,2.867c-7.853-1.336-15.348-2.836-20.048-4.988   c-2.986-1.38-6.292-3.359-5.656-6.012c0.742-3.141,6.008-5.96,10.004-7.821c8.616-4.006,20.208-6.501,30.09-9.859   c-48.276,1.88-96.127,2.148-131.189-2.749c-5.215-0.731-10.96-1.543-16.037-3.028c-4.493-1.321-9.126-3.459-8.299-6.123   c1.158-3.727,11.45-6.696,18.917-8.425c8.593-2.001,17.336-3.471,25.69-4.792c18.466-2.911,37.21-5.087,55.608-7.139   c19.218-2.149,39.026-4.064,58.43-5.625c20.309-1.636,40.667-2.682,62.38-3.495c19.07-0.715,42.356-0.603,60.176,0.134   c8.333,0.345,17.218,0.694,25.485,1.778c6.849,0.905,16.655,2.846,15.757,5.846C364.917,372.86,353.284,374.391,347.667,375.991z"/>
	<g>
		<g>
			<g>
				<path style="fill-rule:evenodd;clip-rule:evenodd;fill:#484FA3;" d="M379.061,242.781      c-84.717,43.759-168.379,88.339-253.939,132.593c-3.247,1.679-6.06,3.428-8.88,3.552c-9.907,0.435-15.688-10.897-10.358-18.646      c2.659-3.869,10.535-6.882,15.685-9.47c16.441-8.268,32.841-17.519,49.131-26.046c11.075-5.798,21.973-11.574,32.853-17.166      c55.045-28.301,110.542-57.966,164.555-85.829c-11.512-22.077-24.784-48.01-37.289-71.624c-1.712-3.233-4.201-7.3-4.146-11.246      c0.126-8.722,9.963-15.08,18.349-9.769c3.997,2.532,6.118,8.987,8.584,13.615c18.057,33.894,35.206,67.613,52.978,101.517      c15.318,29.219,30.169,57.248,45.282,87.31c2.188,4.347,5.024,9.097,7.694,14.503c2.351,4.749,6.502,10.591,6.215,15.685      c-0.379,6.837-7.171,12.86-15.389,10.359c-5.571-1.696-8.039-7.892-11.245-13.91      C418.468,319.408,399.42,280.966,379.061,242.781z"/>
				<g>
					<g>
						<path style="fill-rule:evenodd;clip-rule:evenodd;fill:#FFFFFF;" d="M130.644,359.322c-2.248-4.077,7.373-7.415,8.23-3.648        c0.368,1.635-3.682,4.988-6.198,4.992C131.773,360.665,131.037,360.03,130.644,359.322z"/>
						<path style="fill-rule:evenodd;clip-rule:evenodd;fill:#FFFFFF;" d="M142.953,360.024c-0.942-1.359,0.345-3.377,2.28-4.789        c1.556-1.134,5.054-2.586,5.723-0.479c0.303,0.933-0.515,2.691-2.096,3.902C147.012,360.086,144.167,361.768,142.953,360.024z        "/>
					</g>
					<g>
						<path style="fill-rule:evenodd;clip-rule:evenodd;fill:#FFFFFF;" d="M384.746,239.199c2.484-4.364,8.954,6.139,5.886,8.28        c-3.604,2.511-6.414-5.108-6.088-7.846C384.565,239.46,384.661,239.35,384.746,239.199z"/>
						<path style="fill-rule:evenodd;clip-rule:evenodd;fill:#FFFFFF;" d="M390.644,252.858c2.48-3.23,8.425,5.312,4.576,7.012        C392.296,261.16,388.927,255.085,390.644,252.858z"/>
					</g>
					<g>
						<path style="fill-rule:evenodd;clip-rule:evenodd;fill:#FFFFFF;" d="M443.448,329.668c2.484-4.364,12.541,12.864,9.471,15.006        c-3.604,2.512-10-11.833-9.676-14.572C443.266,329.929,443.36,329.82,443.448,329.668z"/>
					</g>
				</g>
			</g>
			<g>
				<path style="fill-rule:evenodd;clip-rule:evenodd;fill:#7678C7;" d="M269.551,264.091c4.72-0.434,9.767,0.005,9.767,4.439      c0,2.877-4.774,4.895-7.398,6.215c-15.545,7.815-29.065,15.442-44.098,23.381c-2.5,1.318-5.511,3.192-8.88,4.736      c-3.02,1.385-7.06,3.481-10.361,2.96c-4.045-0.64-10.296-9.598-8.878-15.095c1.292-5.001,9.333-7.268,14.504-9.471      c11.434-4.872,22.686-9.255,35.218-12.726C255.883,266.741,262.504,264.739,269.551,264.091z"/>
				<path style="fill-rule:evenodd;clip-rule:evenodd;fill:#7678C7;" d="M109.73,349.329c10.413-0.383,18.795,7.776,19.532,17.757      c0.942,12.738-9.717,23.574-21.605,23.382c-14.757-0.241-24.71-17.035-16.276-31.374      C94.112,354.453,99.938,349.688,109.73,349.329z"/>
				<path style="fill-rule:evenodd;clip-rule:evenodd;fill:#7678C7;" d="M456.306,350.216c1.774-0.085,5.626-0.217,7.989,0.593      c7.007,2.391,14.304,11.586,10.953,22.196c-3.112,9.859-16.186,18.518-28.119,11.246c-6.532-3.98-12.259-13.627-7.692-23.973      c1.434-3.255,5.295-7.534,9.471-9.176C450.972,350.293,453.378,350.359,456.306,350.216z"/>
			</g>
		</g>
		<g>
			<g>
				<g>
					<g>
						<path style="fill-rule:evenodd;clip-rule:evenodd;fill:#F44040;" d="M408.009,216.144        c-3.418,5.957-6.541,12.206-10.064,18.054c-9.436-2.581-18.873-5.433-27.82-8.583c-9.069-3.191-18.112-6.149-26.046-10.358        c-15.966-8.47-27.631-20.661-36.994-35.518c-8.016,15.129-17.425,31.724-26.344,48.244        c-4.394,8.144-8.625,16.533-13.02,24.269c-4.557,8.021-9.257,16.009-15.391,21.901c-8.968,8.617-22.706,14.866-39.957,13.911        c-6.945-0.385-13.778-2.212-19.53-4.144c-5.778-1.939-11.192-4.465-14.8-8.583c23.29-36.593,49.423-75.625,74.584-113.356        c3.905-5.853,7.86-11.862,12.725-18.646c4.704-6.553,9.855-15.878,18.055-17.758c8.053-1.847,14.173,2.873,18.942,6.216        c25.322,17.753,48.571,38.632,72.511,57.713c6.63,5.285,12.93,10.517,19.535,15.984        C398.726,209.075,402.964,212.974,408.009,216.144z"/>
						<path style="fill:#C12B2B;" d="M303.845,171.783c-8.016,15.128-17.423,31.723-26.34,48.242        c-4.394,8.146-8.628,16.535-13.022,24.27c-4.56,8.021-9.26,16.008-15.391,21.902c-8.97,8.616-22.706,14.866-39.954,13.91        c-6.945-0.385-13.78-2.212-19.535-4.143c-3.321-1.114-6.508-2.435-9.315-4.129c-0.742,1.163-1.508,2.344-2.245,3.504        c3.608,4.117,9.023,6.644,14.8,8.583c5.753,1.932,12.585,3.759,19.53,4.144c17.251,0.955,30.989-5.294,39.957-13.911        c6.134-5.892,10.834-13.88,15.391-21.901c4.394-7.736,8.625-16.126,13.02-24.269c8.919-16.52,18.328-33.115,26.344-48.244        c9.363,14.857,21.029,27.048,36.994,35.518c7.933,4.209,16.977,7.167,26.046,10.358c5.263,1.854,10.705,3.592,16.209,5.243        c-13.877-5.716-37.098-17.195-45.491-23.559C326.438,196.381,313.214,186.639,303.845,171.783z"/>
					</g>
					<g>
						<g>
							<path style="fill-rule:evenodd;clip-rule:evenodd;fill:#FFFFFF;" d="M233,274.803c2.721,2.229-5.571,5.999-5.463,2.539         C227.592,275.537,231.295,274.707,233,274.803z"/>
							<path style="fill-rule:evenodd;clip-rule:evenodd;fill:#FFFFFF;" d="M239.06,275.743c-0.745,0.027-2.284-0.314-2.227-1.81         c0.064-1.954,3.523-3.816,4.751-4.816c1.494-1.213,3.767-4.175,5.787-3.387c2.884,1.125-1.186,4.978-2.641,6.244         c-0.775,0.672-1.595,1.256-2.28,1.795C241.278,274.688,240.49,275.685,239.06,275.743z"/>
						</g>
						<g>
							<path style="fill-rule:evenodd;clip-rule:evenodd;fill:#FFFFFF;" d="M290.007,134.29c2.583-2.6-6.412-5.624-5.932-2.049         C284.321,134.105,288.249,134.569,290.007,134.29z"/>
							<path style="fill-rule:evenodd;clip-rule:evenodd;fill:#FFFFFF;" d="M296.185,132.672c-0.772,0.048-2.331,0.566-2.115,2.112         c0.278,2.018,4.059,3.579,5.438,4.484c1.678,1.1,4.348,3.927,6.357,2.893c2.871-1.473-1.76-5.032-3.401-6.19         c-0.873-0.614-1.788-1.133-2.556-1.617C298.6,133.528,297.674,132.58,296.185,132.672z"/>
						</g>
					</g>
				</g>
				<g>
					<path style="fill-rule:evenodd;clip-rule:evenodd;fill:#EFF973;" d="M418.521,204.73c5.902-5.509,11.831-10.298,19.137-12.614       c2.188-0.704,5.274-1.764,7.377-0.252c0.296,0.211,0.537,0.459,0.73,0.738c1.64,2.373-2.26,7.104-4.012,10.993       c-4.134,9.126-8.71,17.263-14.258,26.12c-4.052,6.451-6.216,11.967-11.499,12.885c-0.578,0.101-1.17,0.145-1.775,0.128       c-4.482-0.128-9.115-2.14-13.819-4.099c-4.697-1.954-9.078-4.318-13.966-7.791c2.611-6.667,6.92-15.128,11.843-22.914       c-5.337-2.651-5.635-6.458-3.114-11.686c0.857-1.783,2.737-4.548,4.125-4.767C402.105,191.029,415.908,202.148,418.521,204.73z       "/>
					<g>
						<path style="fill:#484FA3;" d="M407.945,190.04c0.292-0.185,0.848-0.433,1.209-0.533c0.834-0.248,1.508,0.045,2.418,0.674        c3.385,2.319,6.826,10.532,7.081,13.573c0.018,0.295-0.103,0.581-0.336,0.763c-0.234,0.176-0.554,0.221-0.832,0.129        c-2.071-0.77-10.271-7.868-10.714-11.993C406.653,191.542,407.078,190.612,407.945,190.04L407.945,190.04 M416.542,202.047        c-0.988-3.476-3.691-8.876-5.95-10.433c-0.476-0.318-0.857-0.432-1.17-0.351c-0.211,0.074-0.388,0.14-0.529,0.23l0,0        c-0.241,0.16-0.457,0.389-0.391,0.978C408.793,195.133,413.748,199.953,416.542,202.047"/>
						<path style="fill:#484FA3;" d="M415.979,187.13c0.664-0.426,1.484-0.516,2.438-0.252c0.828,0.236,1.473,0.871,1.921,1.905        c1.643,3.747,0.198,12.536-1.199,15.247c-0.131,0.264-0.395,0.446-0.699,0.469c-0.294,0.027-0.584-0.093-0.768-0.338        c-1.25-1.614-3.886-10.088-3.135-14.445C414.752,188.471,415.232,187.608,415.979,187.13L415.979,187.13 M418.261,201.445        c1-3.483,1.584-9.458,0.492-11.975c-0.228-0.522-0.494-0.826-0.802-0.924c-0.455-0.117-0.883-0.038-1.106,0.106        c-0.317,0.201-0.476,0.626-0.6,1.355C415.724,193.041,417.174,198.592,418.261,201.445"/>
						
							<rect x="416.098" y="197.838" transform="matrix(0.6516 -0.7585 0.7585 0.6516 -3.5071 389.7755)" style="fill:#484FA3;" width="13.006" height="1.737"/>
					</g>
					<path style="fill:#7678C7;" d="M419.764,216.075c7.308-1.962,13.909-9.723,15.016-18.704c0.14-1.163,0.31-2.782,0.136-4.247       c-1.167,0.492-2.289,1.064-3.399,1.672c0.06,0.495,0.104,0.984,0.065,1.445c-0.207,2.642-1.053,5.79-3.055,9.034       c-7.269,11.763-19.307,8.507-30.982,2.214c0.25,0.141,0.457,0.296,0.733,0.435c-0.545,0.862-1.078,1.731-1.604,2.607       c0.795,0.411,1.574,0.787,2.225,1.117C406.566,215.481,413.318,217.802,419.764,216.075z"/>
					<path style="fill:#7678C7;" d="M421.143,228.514c-7.759-1.861-15.633-0.525-19.645,8.703c-0.216,0.485-0.455,1.028-0.639,1.606       c1.025,0.426,2.048,0.851,3.063,1.256c0.085-0.507,0.163-1.019,0.359-1.465c3.65-8.274,10.831-8.656,17.404-6.68       c1.777,0.532,3.827,1.561,5.254,1.585c0.48-0.681,0.951-1.364,1.416-2.073C427.286,229.882,422.945,228.944,421.143,228.514z"/>
					<path style="fill:#484FA3;" d="M415.993,242.583c5.274-0.909,9.471-6.504,13.534-12.951       c5.548-8.857,10.124-16.994,14.258-26.12c1.756-3.893,3.608-8.529,1.977-10.907L415.993,242.583z"/>
				</g>
				<g>
					<path style="fill:#7678C7;" d="M315.913,205.678c13.083-8.557,6.499-29.699-9.175-28.708       c-8.526,0.539-16.152,7.348-16.871,15.095c-1.011,10.914,7.642,16.534,18.942,16.277c4.419,10.374,11.291,26.206,16.821,35.469       c2.799-1.462,5.592-2.918,8.384-4.372C328.946,229.857,321.401,214.841,315.913,205.678z"/>
					<path style="fill-rule:evenodd;clip-rule:evenodd;fill:#7678C7;" d="M381.646,166.983c9.813-1.131,17.117,4.674,19.402,12.051       c4.054,13.079-7.614,23.004-17.563,23.08c-5.9,0.046-10.03-2.036-13.277-5.31c-2.344-2.363-4.562-5.618-4.902-10.826       c-0.285-4.352,1.296-8.176,2.859-10.62C370.867,171.124,375.016,167.745,381.646,166.983z"/>
				</g>
			</g>
			<g>
				<g>
					<g>
						<g>
							<path style="fill-rule:evenodd;clip-rule:evenodd;fill:#FFB4A3;" d="M41.572,165.588c5.362,3.289,10.073,7.228,15.223,10.726         c-8.565,14.5-18.266,27.869-29.063,40.14c17.138-1.431,34.561-2.579,52.939-2.771c1.6,9.243,4.001,17.684,5.534,26.99         c-18.926,2.426-38.192,2.565-58.129,0.692c-13.286-1.248-27.108-2.95-28.029-15.915c-0.487-6.864,2.809-13.502,5.881-19.032         C15.143,189.849,28.875,177.045,41.572,165.588z"/>
							<path style="fill:#DD9083;" d="M31.191,237.749c-13.201-1.917-26.797-3.838-27.719-16.806         c-0.487-6.862,2.806-13.501,5.881-19.03c1.999-3.597,4.22-7.005,6.591-10.269c-3.675,4.595-7.076,9.493-10.016,14.775         c-3.073,5.529-6.368,12.168-5.881,19.032c0.921,12.965,14.743,14.667,28.029,15.915c17.453,1.64,34.393,1.736,51.041,0.109         C64.86,241.52,45.78,239.864,31.191,237.749z"/>
							<path style="fill:#DD9083;" d="M23.89,222.232c0.529,0.952,8.177-3.111,11.705-6.408c-2.629,0.201-5.249,0.41-7.86,0.63         C25.418,219.043,23.52,221.575,23.89,222.232z"/>
						</g>
						<g>
							<path style="fill-rule:evenodd;clip-rule:evenodd;fill:#FFB4A3;" d="M53.636,141.779c5.467,3.109,11.192,5.334,16.743,8.158         c8.565-14.501,15.593-29.447,21.127-44.827c7.019,15.701,14.424,31.516,23.125,47.704c8.867-3.058,17.42-5.03,26.31-8.177         c-7.012-17.748-16.184-34.688-27.448-51.247c-7.504-11.034-15.665-22.317-27.466-16.867         c-6.247,2.883-10.471,8.975-13.828,14.335C62.13,106.924,57.543,125.129,53.636,141.779z"/>
							<path style="fill:#DD9083;" d="M111.829,97.863c-8.051-10.639-16.29-21.617-28.095-16.167         c-6.247,2.883-10.469,8.975-13.831,14.335c-2.183,3.486-4.1,7.077-5.814,10.728c2.252-5.439,4.9-10.779,8.11-15.901         c3.358-5.361,7.582-11.452,13.828-14.335c11.801-5.45,19.962,5.833,27.466,16.867c9.859,14.496,18.121,29.284,24.726,44.652         C131.38,125.53,120.723,109.619,111.829,97.863z"/>
							<path style="fill:#DD9083;" d="M94.714,98.957c1.087,0.002,1.223,8.661,0.037,13.34c-1.092-2.398-2.174-4.793-3.245-7.186         C92.659,101.834,93.96,98.951,94.714,98.957z"/>
						</g>
						<g>
							<path style="fill-rule:evenodd;clip-rule:evenodd;fill:#FFB4A3;" d="M96.035,207.876c2.519-6.991,6.378-14.192,10.383-21.107         c3.948-6.82,7.798-13.986,12.459-19.031c0.264-0.287,0.462-0.996,1.034-1.039c3.103,5.146,9.703,15.1,7.961,23.875         c-0.46,2.312-3.298,6.492-5.191,8.65c-2.057,2.345-7.821,7.56-11.073,8.652C106.895,209.459,101.441,208.048,96.035,207.876z         "/>
							<g>
								<path style="fill-rule:evenodd;clip-rule:evenodd;fill:#FFB4A3;" d="M99.205,165.919l15.18,8.338          c3.597,3.213,6.476,7.412,6.697,12.697c0.225,5.624-3.523,10.296-7.862,13.257c-1.783,1.215-5.144,2.963-7.701,2.937          c-1.855-0.016-30.927-16.66-30.927-16.66c-0.26,1.473-1.165,3.486-2.721,5.234c-3.16,3.535-10.788,5.241-12.383,0.368          c-0.813-2.477,0.156-3.752,0.747-5.626c-8.883-3.407-17.618-8.631-18.551-22.536c-0.765-11.371,8.708-23.508,20.955-25.226          c3.073-0.43,7.469-0.087,10.634,0.638c4.711,1.079,10.953,3.946,15.55,7.245C94.558,150.693,100.034,157.083,99.205,165.919          "/>
								<g>
									<g>
										<g>
											<path style="fill-rule:evenodd;clip-rule:evenodd;fill:#FFFFFF;" d="M67.462,166.034             c-3.314-7.248,2.818-10.259,2.818-10.259s1.466,2.089,0.639,5.733C70.307,164.211,67.462,166.034,67.462,166.034"/>
											<path style="fill-rule:evenodd;clip-rule:evenodd;fill:#484FA3;" d="M70.279,155.775c0,0-2.99,1.451-3.663,4.841             c0.2,0.195,0.602,0.616,0.873,0.741c1.213,0.562,2.675,0.128,3.617-0.969C71.44,157.44,70.279,155.775,70.279,155.775"/>
										</g>
										<path style="fill:#484FA3;" d="M67.073,154.166c-1.703,1.45-4.783,6.343-2.841,11.42l-1.652,0.633            c-2.098-5.482,0.69-11.139,3.344-13.4L67.073,154.166z"/>
									</g>
									<g>
										<g>
											<path style="fill-rule:evenodd;clip-rule:evenodd;fill:#FFFFFF;" d="M73.671,147.997             c-3.075-6.726,2.615-9.519,2.615-9.519s1.358,1.933,0.593,5.318C76.314,146.306,73.671,147.997,73.671,147.997"/>
											<path style="fill-rule:evenodd;clip-rule:evenodd;fill:#484FA3;" d="M76.287,138.477c0,0-2.776,1.344-3.406,4.494             c0.193,0.18,0.568,0.569,0.818,0.684c1.128,0.52,2.477,0.118,3.358-0.9C77.365,140.023,76.287,138.477,76.287,138.477"/>
										</g>
										<path style="fill:#484FA3;" d="M73.354,137.031c-1.572,1.338-4.408,5.848-2.622,10.528l-1.653,0.634            c-1.956-5.125,0.648-10.398,3.123-12.51L73.354,137.031z"/>
									</g>
									<path style="fill-rule:evenodd;clip-rule:evenodd;fill:#DD9083;" d="M86.047,179.219c7.014-1.385,11.287-6.202,13.157-13.3           l8.809,4.84C105.38,176.412,97.504,183.016,86.047,179.219"/>
									<g>
										<path style="fill-rule:evenodd;clip-rule:evenodd;fill:#DD9083;" d="M71.001,150.074c0.2-0.918,8.977,0.234,9.699,0.788            c0.924,0.72-0.126,4.568-0.667,4.657C78.509,155.773,70.693,151.451,71.001,150.074"/>
										<path style="fill:#DD9083;" d="M89.743,154.501c0.602,5.035-3.473,8.521-7.513,9.63l-0.467-1.706            c3.33-0.917,6.699-3.723,6.221-7.717L89.743,154.501z"/>
										<path style="fill:#DD9083;" d="M74.057,164.338c2.482-0.409,4.822,1.272,5.233,3.754c0.409,2.48-1.271,4.823-3.751,5.232            c-2.487,0.409-4.828-1.268-5.238-3.75C69.891,167.092,71.566,164.746,74.057,164.338"/>
										<path style="fill:#DD9083;" d="M85.636,148.762c1.388-0.229,2.505-1.069,3.167-2.189c-2.337-1.678-5.098-3.238-7.869-4.51            c-0.485,0.87-0.703,1.89-0.531,2.944C80.814,147.49,83.154,149.171,85.636,148.762"/>
									</g>
								</g>
								<g>
									<path style="fill-rule:evenodd;clip-rule:evenodd;fill:#484FA3;" d="M35.997,178.743c-0.692-1.996-0.972-5.694-0.536-7.568           c0.717-3.062,3.516-5.152,3.195-8.183c-0.351-3.36-3.25-4.734-4.022-6.992c-2.094-6.107,1.397-11.15,4.445-13.65           c2.07-1.7,4.808-2.011,6.217-4.378c2.117-3.548,0.182-9.674,1.999-13.965c1.533-3.606,5.201-6.837,9.986-7.627           c9.418-1.551,16.258,9.693,11.303,17.752c-1.158,1.878-2.972,2.966-4.394,3.835c-1.542,0.949-3.735,1.349-5.24,3.02           c-2.128,2.359-0.901,7.49-2.266,10.899c-0.685,1.71-2.174,3.259-3.346,4.378c-1.397,1.341-2.965,1.84-3.344,4.379           c-0.356,2.388,0.57,4.454,1.461,5.98c2.976,5.07,9.473,7.631,14.886,10.463c1.48,0.771,4.564,2.267,4.498,4.044           c-0.106,2.662-4.583,1.958-7.419,2.897c-1.859,0.617-2.914,2.385-4.741,3.174           C50.082,190.917,38.812,186.904,35.997,178.743"/>
									<g>
										<g>
											<path style="fill-rule:evenodd;clip-rule:evenodd;fill:#FFFFFF;" d="M53.052,183.993             c-0.676-0.909-2.448-1.626-4.234-2.223c-0.758-0.261-2.004-0.654-2.307,0.002c-0.368,0.787,0.97,1.463,1.448,1.7             c1.521,0.758,3.512,1.362,4.665,1.374C52.866,184.734,53.063,184.304,53.052,183.993z"/>
											<path style="fill-rule:evenodd;clip-rule:evenodd;fill:#FFFFFF;" d="M46.812,178.014c1.073-1.478-2.507-3.25-3.027-1.826             c-0.225,0.621,1.188,2.124,2.169,2.249C46.304,178.481,46.621,178.269,46.812,178.014z"/>
											<path style="fill-rule:evenodd;clip-rule:evenodd;fill:#FFFFFF;" d="M41.984,177.684             c0.432-0.482,0.028-1.331-0.655-1.976c-0.552-0.517-1.846-1.254-2.209-0.467c-0.161,0.347,0.071,1.072,0.627,1.622             C40.398,177.508,41.423,178.303,41.984,177.684z"/>
										</g>
										<g>
											<path style="fill-rule:evenodd;clip-rule:evenodd;fill:#FFFFFF;" d="M51.512,127.99c1.269-0.786,2.408-3.029,3.392-5.301             c0.423-0.971,1.076-2.556,0.253-3.033c-0.997-0.572-2.027,1.112-2.395,1.715c-1.161,1.908-2.174,4.449-2.319,5.957             C50.563,127.661,51.108,127.971,51.512,127.99z"/>
											<path style="fill-rule:evenodd;clip-rule:evenodd;fill:#FFFFFF;" d="M57.044,123.778c1.818,1.573,4.541-2.93,2.728-3.765             c-0.788-0.364-2.916,1.324-3.19,2.591C56.485,123.063,56.724,123.504,57.044,123.778z"/>
										</g>
									</g>
								</g>
							</g>
						</g>
					</g>
					<g>
						<path style="fill-rule:evenodd;clip-rule:evenodd;fill:#EFF973;" d="M136.739,126.614        c1.687,1.773,18.232,37.215,30.575,48.044c3.79,3.322,39.878,26.533,54.609,33.42c-13.7,23.21-28.968,45.274-43.879,67.271        c-5.98-3.171-46.808-27.73-53.289-30.103c-14.66-5.369-38.835-1.166-57.462,0.255l-3.484-32.021l33.078-7.856        c0,0,18.466,4.131,24.72-11.94c4.817-12.389-3.171-23.745-3.709-24.843l-12.036-28.29        C105.863,140.55,128.429,130.301,136.739,126.614z"/>
						<g>
							<path style="opacity:0.2;fill:#7678C7;" d="M105.079,232.103c-1.54,2.204,5.095,7.377,11.257,11.165         c2.788,0.385,5.401,0.963,7.777,1.775C119.774,239.403,107.317,228.9,105.079,232.103z"/>
							<path style="opacity:0.2;fill:#7678C7;" d="M148.352,165.312c-1.154,3.181,11.42,7.569,18.818,9.209         c-1.983-1.766-4.07-4.157-6.185-6.932C155.198,164.847,149.184,163.03,148.352,165.312z"/>
							<path style="opacity:0.2;fill-rule:evenodd;clip-rule:evenodd;fill:#7678C7;" d="M155.715,209.55         c1.262-2.581,3.827-7.28,5.371-6.351c0.967,0.579-7.802,18.913-9.505,18.046c-1.717-0.873,2.17-7.94,3.045-9.324         c-5.139-2.586-11.893-5.573-17.836-9.093c-1.271-0.756-4.962-2.52-5.507-4.208c-0.221-0.693,0.025-0.902,0.407-1.242         c1.354-1.188,5.5,1.465,6.566,2.058C144.096,202.682,150.342,205.597,155.715,209.55z"/>
						</g>
					</g>
				</g>
				<g>
					<g>
						<path style="fill-rule:evenodd;clip-rule:evenodd;fill:#FFFFFF;" d="M95.532,81.711c0.244-3.006,6.431,1.061,5.302,3.006        c-1.319,2.281-4.78-1.148-5.302-2.72C95.498,81.899,95.523,81.815,95.532,81.711z"/>
						<path style="fill-rule:evenodd;clip-rule:evenodd;fill:#FFFFFF;" d="M102.211,87.637c0.528-2.385,5.929,0.748,4.265,2.65        C105.219,91.732,101.843,89.284,102.211,87.637z"/>
					</g>
					<g>
						<path style="fill-rule:evenodd;clip-rule:evenodd;fill:#FFFFFF;" d="M3.693,225.275c1.563,0.125,3.707,1.679,5.72,3.33        c0.859,0.708,2.234,1.878,1.687,2.72c-0.655,1.009-2.427-0.07-3.057-0.455c-2.004-1.233-4.176-3.12-5.033-4.462        C2.96,226.04,3.321,225.486,3.693,225.275z"/>
						<path style="fill-rule:evenodd;clip-rule:evenodd;fill:#FFFFFF;" d="M12.934,228.769c0.949-2.346,5.656,0.56,4.362,2.212        c-0.561,0.716-3.367,0.161-4.231-0.896C12.757,229.704,12.771,229.175,12.934,228.769z"/>
						<path style="fill-rule:evenodd;clip-rule:evenodd;fill:#FFFFFF;" d="M21.258,235.624c0.248-0.863,1.54-1.013,2.802-0.681        c1.009,0.269,2.82,1.24,2.16,2.248c-0.29,0.445-1.308,0.703-2.358,0.453C22.628,237.352,20.939,236.736,21.258,235.624z"/>
					</g>
				</g>
				<g>
					<g>
						<path style="fill-rule:evenodd;clip-rule:evenodd;fill:#FFFFFF;" d="M180.231,272.211c0.31-2.339,2.804-5.433,5.444-8.323        c1.128-1.241,2.99-3.211,4.213-2.325c1.466,1.06-0.294,3.639-0.924,4.554c-2.002,2.912-5.008,6.021-7.09,7.206        C181.32,273.367,180.518,272.787,180.231,272.211z"/>
						<path style="fill-rule:evenodd;clip-rule:evenodd;fill:#FFFFFF;" d="M186.192,258.609c-3.45-1.605,1.282-8.444,3.661-6.375        c1.032,0.902-0.016,5.064-1.675,6.282C187.58,258.951,186.792,258.885,186.192,258.609z"/>
						<path style="fill-rule:evenodd;clip-rule:evenodd;fill:#FFFFFF;" d="M197.132,246.65c-1.275-0.44-1.402-2.392-0.807-4.255        c0.485-1.495,2.082-4.141,3.542-3.075c0.646,0.471,0.956,2.023,0.499,3.579C199.832,244.732,198.773,247.213,197.132,246.65z"/>
					</g>
					<g>
						<path style="fill-rule:evenodd;clip-rule:evenodd;fill:#FFFFFF;" d="M122.276,182.615c2.827,1.297,2.606-6.754-0.101-5.327        C120.762,178.031,121.541,181.296,122.276,182.615z"/>
						<path style="fill-rule:evenodd;clip-rule:evenodd;fill:#FFFFFF;" d="M125.372,187.066c-0.262-0.601-1.131-1.691-2.303-1.07        c-1.524,0.812-1.664,4.281-1.981,5.647c-0.386,1.659-1.859,4.612-0.448,5.913c2.013,1.857,3.498-2.873,3.939-4.521        c0.232-0.877,0.379-1.757,0.542-2.51C125.4,189.241,125.885,188.227,125.372,187.066z"/>
					</g>
				</g>
			</g>
		</g>
	</g>
</g>















</svg>
